<svg xmlns="http://www.w3.org/2000/svg" viewBox="0 0 419.02 138.86"><defs><style>.cls-1{isolation:isolate;}.cls-2,.cls-3{fill:#ba873b;}.cls-3{opacity:0.33;}.cls-3,.cls-5,.cls-7{mix-blend-mode:multiply;}.cls-4,.cls-5{fill:#cfa75d;}.cls-5{opacity:0.41;}.cls-6{fill:#f4b2c5;}.cls-7{opacity:0.44;}.cls-8{fill:#f8931a;}.cls-9{fill:#fefffb;}.cls-10{fill:#232323;}</style></defs><g class="cls-1"><g id="Layer_2" data-name="Layer 2"><g id="Layer_1-2" data-name="Layer 1"><path class="cls-2" d="M347.09,93.12V98H2A2,2,0,0,1,0,96v-.92a2,2,0,0,1,2-2Z"/><path class="cls-3" d="M321.78,96V98H2A2,2,0,0,1,0,96Z"/><path class="cls-4" d="M416.72,110.05a3.64,3.64,0,0,0,.82,1.19s-4.44,1.48-3,5.18c0,0-5.18,1.48-2.22,5.18,0,0-3,.74-1.48,2.22,0,0-3,5.19.74,6.67,0,0-1.48.74,0,1.48,0,0-25.18,14.07-72.57-23.69,0,0-6.66,6.66-11.84-.74,0,0-5.19,7.4-21.48,5.92,0,0-5.18-3-.73-5.92,0,0-1.49-3.7,0-4.44a.87.87,0,0,1-.06-.13c-.26-.58-1.16-3,.79-4.32,0,0-2.22-3.7,0-4.44,0,0-1.47-3,1.48-3.7,0,0-2.95-3,0-3.71a4.18,4.18,0,0,1,0-4.44s-2.21-1.48-.74-3c0,0-2.21-1.48-.74-2.22,0,0,14.81,0,21.48,8.88,0,0,5.18-6.66,11.1-1.48,0,0,32.58-27.39,75.53-22.21,0,0-3,4.44,1.48,6.66,0,0-3.7,5.19,0,8.89,0,0-1.48,3.7,0,4.44,0,0-1.48,1.48.74,3,0,0-1.48,3.71.74,5.19,0,0-.74,3.7.74,4.44,0,0-2.22,2.22.74,4.44,0,0-1.48,3.71.74,5.93C419,105.32,415.69,107.53,416.72,110.05Z"/><path class="cls-2" d="M339.05,108.28s-6.66,6.66-11.84-.74V86.06s5.18-6.66,11.1-1.48Z"/><path class="cls-5" d="M414.58,116.42s-5.18,1.48-2.22,5.18c0,0-3,.74-1.48,2.22,0,0-3,5.19.74,6.67,0,0-1.48.74,0,1.48,0,0-25.18,14.07-72.57-23.69,0,0-6.66,6.66-11.84-.74,0,0-5.19,7.4-21.48,5.92,0,0-5.18-3-.73-5.92,0,0-1.49-3.7,0-4.44a.87.87,0,0,1-.06-.13c5.34.38,15.82.35,22.27-4.84,0,0,5.36,7.2,11.53,0,0,0,44.71,24.43,78,11.92a3.64,3.64,0,0,0,.82,1.19S413.1,112.72,414.58,116.42Z"/><line class="cls-6" x1="277.49" y1="103.99" x2="275.74" y2="103.6"/><g class="cls-7"><path class="cls-8" d="M273.19,103.91l.17-.38s0,0,0,0"/></g><path d="M93.12,134.12C65.2,149.3,55,123.17,55,123.17c-3.17-6.75,1.89-9.14,1.89-9.14,3.38-1.58,5,1.8,5,1.8,8.73,18.57,22.24,12.22,22.24,12.22,26.13-10.21,4.19-35,4.19-35l-30.89.07c-2.27-9.23,6.86-7.34,6.86-7.34a45,45,0,0,0-10.31-22C44.9,57.81,46,47,46,47c-1.38-11.72-7.24-11-7.24-11-3.78.44-6.07-3.24-7.21-5.91a18.54,18.54,0,0,1-.93-2.64,2.58,2.58,0,0,0,.43-.26c2.66-1.94-.23-8.09-.23-8.09l4.38-8.24-4.86-6,7.44,2.69.9-2.49L36.3,0l9.93,3.58C61.12,9,60,19.78,60,19.78,56.34,33.88,77.2,34.39,77.2,34.39,118,37.89,99.21,90,99.21,90,118.46,122.22,93.12,134.12,93.12,134.12Z"/><path class="cls-9" d="M36.17,20.32a3.24,3.24,0,0,1-1.81-.22,3.76,3.76,0,0,0,1.35.06A2.63,2.63,0,0,0,38,18.33a2,2,0,0,0-.95-.84,2.16,2.16,0,0,1,1.41,1A2.63,2.63,0,0,1,36.17,20.32Z"/><path class="cls-10" d="M32.85,28l-1.3,2.09a18.54,18.54,0,0,1-.93-2.64,2.58,2.58,0,0,0,.43-.26H32.4A.54.54,0,0,1,32.85,28Z"/><path class="cls-9" d="M123.19,80a43,43,0,0,1,5.18.5"/><path class="cls-9" d="M166.79,101.64c1.29,1.16,2.53,2.33,3.71,3.48"/></g></g></g></svg>